<svg height="16" viewBox="0 0 16 16" width="16" xmlns="http://www.w3.org/2000/svg"><path d="m175 11c-4.418278 0-8 3.581722-8 8s3.581722 8 8 8 8-3.581722 8-8c0-2.1217319-.842855-4.1565632-2.343146-5.6568542-1.500291-1.5002911-3.535122-2.3431458-5.656854-2.3431458zm6.231429 5.1428571h-2.722858c-.398232-1.4077093-1.089533-2.7153397-2.028571-3.8371428 2.095637.4678791 3.852858 1.8869692 4.751429 3.8371428zm-6.262858 9.4457143c-1.047768-1.0438544-1.830519-2.3232942-2.282857-3.7314285h4.628572c-.453165 1.4084137-1.23691 2.6878785-2.285715 3.7314285-.017927.0128755-.042072.0128755-.06 0zm-2.571428-4.8742857c-.209539-1.1332526-.209539-2.2953188 0-3.4285714h5.205714c.209539 1.1332526.209539 2.2953188 0 3.4285714zm-4.254294-1.7142857c-.000899-.5783433.072073-1.1544338.217151-1.7142857h2.877143c-.186563 1.1352434-.186563 2.293328 0 3.4285714h-2.877143c-.145078-.5598519-.21805-1.1359424-.217151-1.7142857zm6.857151-6.6c.010098-.0039799.02133-.0039799.031429 0 1.049315 1.0471094 1.832166 2.330632 2.282857 3.7428571h-4.628572c.453165-1.4084137 1.23691-2.6878785 2.285715-3.7314285.00778-.0072152.017961-.0112875.028571-.0114286zm3.762857 4.8857143h2.877143c.289576 1.124514.289576 2.3040574 0 3.4285714h-2.877143c.186563-1.1352434.186563-2.293328 0-3.4285714zm-5.242857-4.98c-.937964 1.122524-1.629139 2.4299146-2.028571 3.8371428h-2.722858c.898571-1.9501736 2.655792-3.3692637 4.751429-3.8371428zm-4.751429 9.5514286h2.722858c.398232 1.4077093 1.089533 2.7153397 2.028571 3.8371428-2.095637-.4678791-3.852858-1.8869692-4.751429-3.8371428zm7.714286 3.8371428c.936943-1.1227781 1.627134-2.4301509 2.025714-3.8371428h2.722858c-.898571 1.9501736-2.655792 3.3692637-4.751429 3.8371428z" fill="#6d7278" transform="translate(-167 -11)"/></svg>