<?xml version="1.0" encoding="UTF-8"?>
<svg width="462px" height="348px" viewBox="0 0 462 348" version="1.1" xmlns="http://www.w3.org/2000/svg" xmlns:xlink="http://www.w3.org/1999/xlink">
    <!-- Generator: Sketch 57.1 (83088) - https://sketch.com -->
    <title>noun_Home_2394499</title>
    <desc>Created with Sketch.</desc>
    <g id="Page-1" stroke="none" stroke-width="1" fill="none" fill-rule="evenodd">
        <g id="noun_Home_2394499" fill="#000000">
            <path d="M21,203 C8,214 -8,194 5,184 L223,3 C228,-1 235,-1 239,3 C312,64 385,124 457,184 C470,194 454,214 441,203 L389,160 L389,335 C389,343 384,348 377,348 L88,348 C81,348 75,343 75,335 L75,159 L21,203 Z M174,323 L174,231 C174,224 180,219 187,219 L277,219 C284,219 290,224 290,231 L290,323 L364,323 L364,139 L231,29 L100,138 L100,323 L174,323 Z M265,323 L265,244 L200,244 L200,323 L265,323 Z" id="Shape"></path>
        </g>
    </g>
</svg>