<svg height="16" viewBox="0 0 16 16" width="16" xmlns="http://www.w3.org/2000/svg"><path d="m293 12c4.411 0 8 3.589 8 8s-3.589 8-8 8-8-3.589-8-8 3.589-8 8-8zm0 1c-3.86 0-7 3.14-7 7s3.14 7 7 7 7-3.14 7-7-3.14-7-7-7zm0 1.453c.276 0 .5.224.5.5v.575c1.4165.1995 2.5 1.2265 2.5 2.4625 0 .276-.224.5-.5.5s-.5-.224-.5-.5c0-.697-.64-1.2795-1.5-1.447v2.9845c1.4165.1995 2.5 1.2265 2.5 2.4625s-1.0835 2.263-2.5 2.4625v.5c0 .276-.224.5-.5.5s-.5-.224-.5-.5v-.5c-1.4165-.1995-2.5-1.2265-2.5-2.4625 0-.276.224-.5.5-.5s.5.224.5.5c0 .697.64 1.2795 1.5 1.447v-2.9845c-1.4165-.1995-2.5-1.2265-2.5-2.4625s1.0835-2.263 2.5-2.4625v-.575c0-.276.224-.5.5-.5zm.5 6.091v2.8935c.86-.168 1.5-.75 1.5-1.447 0-.6965-.64-1.279-1.5-1.4465zm-1-4.0005c-.86.168-1.5.75-1.5 1.447s.64 1.2795 1.5 1.4465z" fill="#6d7278" transform="translate(-285 -12)"/></svg>